<?xml version="1.0" encoding="UTF-8"?>
<!DOCTYPE svg PUBLIC "-//W3C//DTD SVG 1.1//EN" "http://www.w3.org/Graphics/SVG/1.1/DTD/svg11.dtd">
<!-- Creator: CorelDRAW X7 -->
<svg xmlns="http://www.w3.org/2000/svg" xml:space="preserve" width="1733px" height="1568px" version="1.1" style="shape-rendering:geometricPrecision; text-rendering:geometricPrecision; image-rendering:optimizeQuality; fill-rule:evenodd; clip-rule:evenodd"
viewBox="0 0 1671042 1512359"
 xmlns:xlink="http://www.w3.org/1999/xlink">
 <defs>
  <style type="text/css">
   <![CDATA[
    .fil7 {fill:#FEFEFE;fill-rule:nonzero}
    .fil9 {fill:#FFF8BB;fill-rule:nonzero}
    .fil6 {fill:#F2F2F1;fill-rule:nonzero}
    .fil4 {fill:#C8793C;fill-rule:nonzero}
    .fil5 {fill:#AC6732;fill-rule:nonzero}
    .fil3 {fill:#7D4723;fill-rule:nonzero}
    .fil8 {fill:#00A7B5;fill-rule:nonzero}
    .fil2 {fill:#00969D;fill-rule:nonzero}
    .fil1 {fill:#006563;fill-rule:nonzero}
    .fil0 {fill:#253044;fill-rule:nonzero}
   ]]>
  </style>
   <clipPath id="id0" style="clip-rule:nonzero">
    <path d="M866461 1512359c-427616,0 -774559,-337011 -774559,-753345 0,-415903 346943,-753343 774559,-753343 141510,0 274203,36874 388381,101189 -9698,-2144 -19838,-3859 -30859,-3859 -6172,0 -13225,429 -19838,1715 0,0 -41438,19723 -41438,62171 0,0 7053,-858 18956,-858 32181,0 97426,6004 140628,48881 0,0 18074,20581 -14107,20581 -3968,0 -8817,-430 -14548,-1288 -37030,-4716 -55105,-54881 -101835,-54881 -18073,0 -40116,7288 -69211,27012 0,0 -16753,9862 -22484,35588l-116822 -6003c-440,-428 -440,-428 -881,-428l-441 428 -134898 -6860c-441,-858 -1323,-858 -2204,-858 0,0 -441,0 -441,0l0 429 -83319 -4288c0,-429 0,-858 441,-1715l-882 -429c-881,858 -1763,1286 -2204,2144l-90372 -4716 9698 22296c-1322,0 -3086,428 -4408,428l0 858c1322,857 2645,1286 4408,2144l-10580 6432 -882 30012 5290 9434 -2204 3430c-441,0 -441,0 -441,0l0 429 -3086 3858 -881 23583c-1323,858 -2645,1715 -4409,2572l441 858c1323,-858 2645,-1286 3968,-1715l-1323 42448 10581 6860 254364 13291 -37031 511092 21161 2144 37031 -512378 150767 7718c-2645,7289 -3527,16722 -1322,29156l9698 56169 -881 429 55987 15864c7495,2144 14107,3001 19838,3001 43643,0 34826,-51451 34826,-51451 0,0 11462,-48451 28655,-48451 4408,0 9258,3002 14548,12005 24246,41162 -41881,84467 -41881,84467 7054,9434 51139,22297 51139,22297 1322,0 2204,0 3086,0 76265,0 47169,-81037 46287,-123915 -441,-24440 5731,-30014 11021,-30014 4409,0 8377,3430 8377,3430 52900,41591 -20279,147497 -20279,147497 7053,1286 13666,2144 19838,2144 32622,0 46729,-18866 46729,-18866 85083,-94757 -7494,-119626 -7935,-171078 -441,-25297 5290,-31729 11021,-31729 5730,0 11902,6432 11902,6432 52020,64314 29537,162074 29537,162074 2645,0 5290,428 7494,428 38354,0 59954,-33872 59954,-33872 22924,-78893 -44524,-137635 -38793,-157358 19838,23154 38352,47593 55545,72891 2645,28298 1764,53595 1764,53595 0,0 3086,858 7494,858 5290,0 13225,-1286 20720,-6432 61276,108050 96103,231963 96103,364023 0,416334 -346942,753345 -774558,753345zm325340 -1144380l-1762 -3002 5289 1287c-1322,429 -2645,857 -3527,1715zm41440 -84039c-3527,0 -7935,0 -13226,-856 -1322,0 -2645,-430 -4408,-430l882 -29156 -6172 -6002 -40557 -2144c8817,-1715 17634,-2573 26450,-2573 21601,0 41439,6003 52901,24440 0,0 11462,16721 -15870,16721l0 0z"/>
   </clipPath>
   <clipPath id="id1" style="clip-rule:nonzero">
    <path d="M677724 245288c-1507,-592 -2986,-1243 -4439,-1993l108 -792c1480,-266 2932,-467 4412,-625l1158 2627 -1239 783zm83298 -20770l-2717 -142c753,-684 1559,-1367 2394,-2035l672 409c-107,593 -215,1184 -349,1768l0 0z"/>
   </clipPath>
   <clipPath id="id2" style="clip-rule:nonzero">
    <path d="M847271 228914l-2851 -146 74 -731c113,-11 226,-16 338,-16 889,0 1719,345 2439,893l0 0z"/>
   </clipPath>
   <clipPath id="id3" style="clip-rule:nonzero">
    <path d="M668940 294990l-100 -267c169,-87 339,-170 506,-255l-406 522 0 0z"/>
   </clipPath>
   <clipPath id="id4" style="clip-rule:nonzero">
    <path d="M983313 235845l-1197 -62 333 -496c311,168 594,353 864,558l0 0z"/>
   </clipPath>
   <clipPath id="id5" style="clip-rule:nonzero">
    <path d="M661151 325874l-382 -706c1404,-870 2843,-1673 4314,-2423l-45 1452c-1307,520 -2604,1077 -3887,1677l0 0z"/>
   </clipPath>
 </defs>
 <g id="Слой_x0020_1">
  <metadata id="CorelCorpID_0Corel-Layer"/>
  <g style="clip-path:url(#id0)">
   <image x="89258" y="3098" width="1555288" height="1512691" xlink:href="404_Images\404_ImgID1.png"/>
  </g>
  <path class="fil0" d="M467406 260672c0,0 -48111,54742 -51949,9516 -3841,-45230 70407,-49236 70407,-49236 -1860,-11032 -34203,-42425 -34203,-42425 -67011,-39688 -75723,41770 -93167,77861 -17445,36091 -27351,12647 -27351,12647 -27853,-59315 78117,-110918 78117,-110918 -35628,-29975 -63602,-17936 -63602,-17936 -111402,37109 -42979,101226 -63740,143321 -20759,42099 -29936,10135 -29936,10135 -17909,-77331 41583,-146383 41583,-146383 -34364,-24136 -71073,-4436 -71073,-4436 -62223,64097 -2612,165768 -46091,145844 -43478,-19921 17727,-129569 17727,-129569 0,0 -27166,-26374 -61593,11679 -34424,38051 27206,132465 -4286,115723 -31494,-16737 -42933,-87786 -42933,-87786 -100085,84985 34786,179018 34786,179018l-234 273c0,0 -69661,135371 65235,172861 0,0 -28000,-67701 -8927,-94662 19072,-26958 14895,80753 66039,101509 51140,20756 61180,-13132 61180,-13132 0,0 -113505,-74336 -85462,-108716 28042,-34380 29570,79034 119491,112376 0,0 43309,3525 60967,-31123 0,0 -90154,-38804 -115765,-114576 0,0 -9006,-31999 32133,-2415 41135,29586 14616,112891 133864,103379 0,0 31406,40 47047,-40298 0,0 -122199,-5481 -129259,-69004 0,0 -3778,-24687 31175,815 34955,25503 86513,94775 124903,33785 0,0 11952,-40347 7681,-50888 0,0 -68334,24812 -89227,-16971 -20893,-41778 51419,-11380 51419,-11380 0,0 47307,46202 66657,-12892l14897 -50305 587 -120 -40750 -39556c-49023,-45277 -66347,13985 -66347,13985z"/>
  <path class="fil1" d="M549293 899054c-22969,-49264 -123584,-77041 -123584,-77041 -173285,-52390 -136191,-290835 -136191,-290835l45668 18899 -36904 -28026 -40 -24574c12208,-50924 52620,-26414 52620,-26414 40335,-24638 86067,36730 94880,59870 8813,23143 28130,29460 28130,29460l10606 47376 -57 -36859c114226,82322 74047,207012 49513,233382 -24533,26366 97,61111 97,61111l15262 33651z"/>
  <path class="fil2" d="M350862 471063c48794,121805 95515,249404 161159,363271 10082,17489 23649,30783 36304,46404 10027,12373 26141,39398 16601,55939 -10448,18112 -32354,-54066 -36216,-62233 -10360,-21941 -28359,-39595 -36894,-62485 -13515,-36256 -124461,-271293 -140954,-340896z"/>
  <path class="fil2" d="M369376 469182l270 -353 -77 896c-3545,6133 -7491,12031 -11807,17646l11614 -18189z"/>
  <path class="fil2" d="M377943 466353c-771,11252 -5935,22147 -14152,29870l14152 -29870z"/>
  <path class="fil2" d="M393496 472759c-165,16870 -7415,33559 -19631,45193l19631 -45193z"/>
  <path class="fil2" d="M409268 482026c-1647,19265 -12678,36686 -26446,50261l26446 -50261z"/>
  <path class="fil2" d="M424366 497916c-1683,8672 -6578,16335 -11484,23682 -7849,11750 -16353,23657 -28492,30886l39976 -54568z"/>
  <path class="fil2" d="M441105 519343c-9597,21709 -22935,43325 -44077,54115l44077 -54115z"/>
  <path class="fil2" d="M452248 544648c-7470,22387 -25627,40942 -47850,48903l47850 -48903z"/>
  <path class="fil2" d="M468411 558657c-4581,13105 -9837,26214 -18381,37152 -8543,10943 -20848,19599 -34660,20982l53041 -58134z"/>
  <path class="fil2" d="M474716 574269c-2259,14516 -6707,28854 -14579,41256 -7873,12405 -19358,22785 -33154,27828l47733 -69084z"/>
  <path class="fil2" d="M484907 608982c1796,5820 736,12229 -1723,17802 -2456,5574 -6218,10458 -10007,15232 -10252,12919 -21929,26120 -37803,30602l49533 -63636z"/>
  <path class="fil2" d="M508368 592679c1430,19530 2689,40053 -5594,57799 -9724,20830 -30609,33757 -50442,45383l56036 -103182z"/>
  <path class="fil2" d="M531949 618804c-2033,23255 -7121,46591 -18324,67074 -11200,20483 -28995,37969 -51061,45592l69385 -112666z"/>
  <path class="fil2" d="M546939 643382c2472,18401 -5040,36654 -14005,52909 -13635,24715 -33210,48826 -60613,55578l74618 -108487z"/>
  <path class="fil2" d="M559822 692996c-3235,26301 -22910,47243 -42259,65346 -8998,8420 -18739,16979 -30771,19620l73030 -84966z"/>
  <path class="fil2" d="M558565 752640c-11490,10328 -22095,21637 -31655,33773 -6867,8707 -14560,18650 -25603,19683l57258 -53456z"/>
  <path class="fil2" d="M354342 488564c-3243,1170 -6820,1399 -10187,651 -1768,-394 -3468,-1044 -5120,-1801 -6968,-3178 -13097,-8178 -17606,-14370l32913 15520z"/>
  <path class="fil2" d="M359341 497312c-9415,2509 -19602,2078 -28740,-1302 -9139,-3378 -17176,-9709 -22526,-17850l51266 19152z"/>
  <path class="fil2" d="M368439 520782c-5059,-1134 -10287,361 -15443,900 -18707,1941 -37116,-9485 -47150,-25390l62593 24490z"/>
  <path class="fil2" d="M373909 534807c-6422,5404 -15258,6960 -23649,6979 -5402,13 -11012,-590 -15633,-3387l39282 -3592z"/>
  <path class="fil2" d="M379925 552549c-7929,3010 -16602,3312 -25080,3259 -1789,-12 -3598,-41 -5329,-475 -1639,-409 -3167,-1173 -4677,-1928 -3007,-1508 -6016,-3015 -9022,-4522l44108 3666z"/>
  <path class="fil2" d="M387901 577825c-8189,2625 -16548,5273 -25152,5265 -4561,-4 -9085,-755 -13587,-1507 -9375,-1567 -18811,-3150 -27768,-6333 -8962,-3186 -17505,-8097 -23634,-15367l90141 17942z"/>
  <path class="fil2" d="M396063 594688c-8704,3890 -18018,6510 -27527,7254 -17979,1402 -35733,-3895 -52994,-9130 -8314,-2524 -17211,-5438 -22403,-12410l102924 14286z"/>
  <path class="fil2" d="M404715 617048c-15728,10794 -35874,12385 -54946,12461 -9331,37 -18767,-221 -27788,-2596 -9027,-2370 -17702,-7057 -23349,-14486l106083 4621z"/>
  <path class="fil2" d="M419931 646765c-18249,12832 -40537,20093 -62836,19462 -22299,-626 -44450,-9331 -60541,-24782l123377 5320z"/>
  <path class="fil2" d="M431665 674333c-5429,4822 -10907,9677 -17220,13265 -5799,3296 -12172,5445 -18606,7197 -15693,4281 -32142,6298 -48304,4450 -16163,-1849 -32048,-7701 -44679,-17952l128809 -6960z"/>
  <path class="fil2" d="M442552 703520c-18808,16119 -44125,22255 -68692,25414 -17107,2202 -35428,2994 -50614,-5176l119306 -20238z"/>
  <path class="fil2" d="M458440 734231c-1044,2571 -3323,4412 -5577,6040 -29501,21275 -69197,24715 -104496,15938l110073 -21978z"/>
  <path class="fil2" d="M467193 755722c-25088,25041 -64233,34947 -98215,24847l98215 -24847z"/>
  <path class="fil2" d="M478409 780927c-16166,16605 -40439,24920 -63389,21716l63389 -21716z"/>
  <path class="fil2" d="M488946 807615c-6896,6867 -16778,9737 -26366,11405 -8591,1491 -17316,2222 -26041,2182l52407 -13587z"/>
  <path class="fil0" d="M1218491 448631c0,0 18727,-77880 43285,-36682 24566,41195 -41757,84455 -41757,84455 6835,9557 51137,22396 51137,22396 80003,2356 50120,-80143 49356,-123914 -764,-43767 19237,-26612 19237,-26612 53171,41915 -20157,147521 -20157,147521 46664,9736 66754,-16629 66754,-16629 85053,-94635 -7608,-119590 -8118,-170861 -515,-51269 22782,-25586 22782,-25586 52414,64415 29890,162023 29890,162023 42786,4827 67340,-33500 67340,-33500 27331,-94320 -74703,-159861 -25507,-163903 49201,-4043 43985,133286 43985,133286 0,0 37212,10781 51132,-43880 13921,-54657 -86593,-112183 -49886,-112907 36710,-723 80263,61123 80263,61123 52391,-134394 -115210,-152667 -115210,-152667l89 -387c0,0 1013,-166406 -140314,-130609 0,0 57205,49856 52229,85754 -2768,19977 -18316,-3725 -41319,-27423 -18341,-18899 -41424,-37795 -66545,-34552 -56622,7313 -50080,45045 -50080,45045 0,0 138820,10790 129051,58547 -5442,26611 -24659,4987 -57583,-16637 -26165,-17184 -60987,-34371 -104420,-27343 0,0 -41416,19631 -41513,62132 0,0 100840,-10774 159600,48063 0,0 23155,25808 -28384,19369 -51538,-6437 -65929,-100159 -171024,-27740 0,0 -28858,16637 -24466,63511 0,0 114777,-59654 150808,-2681 0,0 14953,21596 -29015,15777 -43960,-5815 -123533,-44659 -130425,34034 0,0 7788,44920 16618,52729 0,0 51217,-60011 89836,-31162 38623,28847 -41931,38186 -41931,38186 0,0 -64933,-19049 -55220,47725l9714 56000 -483 426 55827 16178c66079,17252 54424,-48605 54424,-48605z"/>
  <polygon class="fil3" points="912875,900240 891744,898083 931742,341993 952872,344151 "/>
  <polygon class="fil3" points="663817,366868 674117,373724 1219704,401532 1210229,390409 "/>
  <polygon class="fil3" points="1210350,247418 1216530,253491 1214425,327035 1187797,332585 1208248,320967 "/>
  <polygon class="fil3" points="1207883,333610 1214228,333931 1213143,371856 1199929,371180 1212483,394838 1206142,394516 1171980,367455 1187238,352120 "/>
  <polygon class="fil4" points="668028,219774 678967,244501 667108,251951 666252,281830 671802,291322 665758,299066 663817,366868 1206142,394516 1190047,364923 1206862,369231 1207883,333610 1187797,332585 1208248,320967 1210350,247418 "/>
  <g style="clip-path:url(#id1)">
   <image x="669949" y="218898" width="94920" height="29416" xlink:href="404_Images\404_ImgID2.png"/>
  </g>
  <path class="fil5" d="M700507 250742c-1259,0 -2484,-85 -3653,-238 -4292,-602 -8070,-1610 -12008,-2764 -2391,-732 -4770,-1515 -7128,-2452l1249 -787 -1157 -2620c2828,-294 5658,-410 8451,-410 3910,0 7744,226 11416,490 1781,109 3468,225 5084,225 1784,0 3484,-141 5152,-591 3247,-908 6940,-2631 11079,-3825 3753,-1218 7845,-1825 11694,-1825 339,0 676,8 1010,16 4119,-8 8410,-490 11629,-1386 1623,-442 2954,-880 4361,-1543 1378,-699 2764,-1636 4154,-2764 2135,-1681 4156,-3803 6462,-5892l2717 140c-836,3564 -2322,6904 -4629,10051 -1383,1788 -3119,3468 -5261,4729 -2070,1271 -4617,1949 -6948,1949 -56,0 -112,0 -169,-3 -4843,-68 -8552,-2270 -12458,-2693 -631,-92 -1253,-137 -1868,-137 -3215,0 -6189,1231 -8740,3301 -3067,2378 -6113,5208 -10474,7036 -3198,1418 -6682,1993 -9965,1993z"/>
  <path class="fil5" d="M696496 265992c-10227,0 -20346,-2905 -28452,-8571l318 -739c6405,1337 12715,2045 18879,2045 6028,0 11923,-675 17646,-2086 5771,-1318 11827,-3444 18429,-4778 2833,-583 5791,-1036 8830,-1036 489,0 984,11 1483,35 3548,141 7144,1102 10291,2713 3163,1603 5513,3725 8286,4312 402,108 824,157 1246,157 2238,0 4521,-1419 4634,-3481 112,-1216 -402,-2604 -852,-4255 -535,-1624 -700,-3862 -113,-5827 1186,-4019 4412,-7016 8351,-8342 2395,-760 4717,-949 6863,-949 1263,0 2460,64 3581,116 631,33 1249,49 1861,49 2282,0 4428,-218 6690,-680 5675,-1161 11113,-3878 16272,-7792l627 507c-2893,6027 -8524,10817 -15142,13261 -3191,1222 -6844,1777 -10172,1777 -79,0 -160,0 -240,-5 -302,5 -604,8 -901,8 -735,0 -1447,-11 -2137,-24 -688,-8 -1351,-20 -1993,-20 -1303,0 -2512,44 -3633,229 -2199,289 -4666,1523 -5904,3497 -643,1013 -872,2105 -767,3608 108,1475 538,3251 185,5233 -306,2033 -1797,3717 -3444,4609 -644,357 -1323,618 -2017,796 -1873,-109 -3746,-189 -5623,-233 -2681,-728 -5040,-1934 -7261,-2452 -1709,-413 -3413,-595 -5121,-595 -3969,0 -7956,965 -12019,2147 -5811,1799 -11722,4383 -18474,5790 -3363,655 -6792,976 -10207,976z"/>
  <g style="clip-path:url(#id2)">
   <image x="841544" y="224926" width="8118" height="8118" xlink:href="404_Images\404_ImgID3.png"/>
  </g>
  <path class="fil5" d="M696770 270172l-166 -788c13615,-5489 28183,-8222 42799,-9142 2218,-105 4440,-156 6663,-156 1170,0 2343,16 3512,40 1877,44 3750,124 5623,233 2057,116 4111,272 6160,461 7294,543 14547,1801 21640,3488 4453,1054 9014,1970 13474,1970 2512,0 4995,-294 7411,-1013 3287,-1012 6313,-2813 8511,-5216 1106,-1194 2017,-2499 2705,-3882 690,-1286 1177,-2990 2439,-4991 652,-972 1571,-2114 3062,-2953 712,-410 1640,-728 2391,-825 752,-112 1315,-112 1692,-140 278,-29 418,-40 483,-48 -5,0 -5,0 -8,0 -16,0 -24,0 0,-8 108,-81 582,-555 1152,-1315 1247,-1728 3489,-3508 5438,-4335 2025,-905 3971,-1331 5726,-1749 3420,-736 6313,-1527 8041,-3577 1451,-1602 1878,-6055 -1105,-7389l8 -69 2850 145c940,716 1676,1768 2066,2821 767,1989 968,4388 -137,6675 -965,2097 -2717,3769 -4529,4874 -1805,1134 -3714,1918 -5445,2500 -1700,599 -3231,1189 -4445,1885 -1298,731 -1945,1278 -2785,2507 -514,676 -1090,1692 -2407,2728 -640,503 -1551,1002 -2463,1226 -889,238 -1612,258 -2126,281 -784,21 -1013,45 -1101,45 -40,0 -53,-8 -81,-19 0,0 0,0 -4,0 -121,0 -470,208 -868,682 -860,920 -1772,2580 -3143,4260 -1342,1600 -2897,2965 -4564,4078 -3361,2211 -7021,3537 -10698,4333 -4043,880 -8101,1101 -12133,1101 -3347,0 -6674,-153 -9958,-213l-21439 -269c-2733,0 -5470,32 -8198,80 -2862,-547 -5795,-920 -8668,-1169 -1539,-93 -3079,-136 -4613,-136 -3172,0 -6321,179 -9412,486 -3979,442 -7877,1052 -11723,1731 -7136,269 -14326,567 -21627,772z"/>
  <path class="fil5" d="M775808 278901c-3417,-892 -6868,-1757 -10385,-2488 -7752,-1776 -15881,-2769 -23966,-2769 -3256,0 -6502,160 -9714,494 -7128,764 -14085,2118 -20880,3930 -2235,178 -4485,318 -6752,394 -1575,77 -3166,116 -4758,116 -7620,0 -15363,-939 -22484,-3551l173 -789c1671,113 3331,162 4983,162 12305,0 24075,-2830 36372,-5000 3846,-679 7744,-1289 11723,-1731 3091,-307 6240,-486 9412,-486 1534,0 3074,43 4613,136 2873,249 5806,622 8668,1169 1820,346 3613,763 5345,1258 4440,1201 8523,2492 12550,3042 2198,293 4492,410 6844,410 1985,0 4010,-84 6055,-209 8974,-546 17944,-1274 26640,-3360 8712,-2028 16955,-5650 24735,-9495 3942,-1905 7571,-3838 10433,-6345 1410,-1207 2828,-2983 4853,-4747 2118,-1816 4775,-2973 7097,-3641 2359,-731 4566,-1065 6555,-1607 1001,-258 1925,-579 2806,-953 831,-354 1486,-694 2173,-1349 1318,-1234 2443,-2946 2957,-4816 495,-1836 391,-3909 -1216,-5368l413 -692c2412,901 3706,3850 3596,6399 -92,2588 -912,5116 -2527,7286 -743,1084 -1916,2117 -3042,2849 -1089,702 -2243,1261 -3364,1736 -2246,952 -4421,1651 -6305,2399 -1928,759 -3375,1643 -4597,2853 -1331,1229 -2668,3046 -4565,4878 -3766,3621 -8348,5726 -12655,7275 -8773,3178 -17947,4327 -26824,5890 -8909,1507 -17750,3232 -26564,5164 -2716,583 -5508,1194 -8398,1556z"/>
  <g style="clip-path:url(#id3)">
   <image x="665930" y="290430" width="6510" height="8118" xlink:href="404_Images\404_ImgID4.png"/>
  </g>
  <path class="fil5" d="M669117 295478l-177 -487 406 -523c13222,-6614 27006,-12537 41517,-16400 6795,-1812 13752,-3166 20880,-3930 3212,-334 6458,-494 9714,-494 8085,0 16214,993 23966,2769 3517,731 6968,1596 10385,2488 7161,1876 14161,3901 21290,5187 3561,555 7170,985 10766,985 1712,0 3424,-96 5128,-322 5288,-623 10344,-2391 15050,-5015 4734,-2584 9190,-5822 14306,-8379 5095,-2519 10613,-4348 16340,-5252 2820,-422 5960,-514 8233,-647 2436,-241 3698,-724 4655,-1897 1145,-1294 2181,-4412 4620,-7020 2336,-2531 5289,-4051 7998,-5152 5490,-2247 10814,-2732 14355,-5827 1828,-1555 3500,-3492 4403,-5743 981,-2214 1073,-4798 -284,-7092l618 -519c2194,1957 3043,5401 2375,8379 -586,3018 -2093,5747 -4114,8029 -1005,1154 -2183,2174 -3488,3090 -1407,921 -2653,1471 -3967,2098 -2592,1185 -5116,2190 -7370,3279 -2246,1101 -4143,2396 -5421,3995 -1367,1402 -1933,3737 -4075,6807 -1093,1523 -2874,2962 -4662,3641 -1797,715 -3533,957 -5083,1070 -1062,68 -2026,84 -2943,84 -434,0 -851,-5 -1265,-8 -410,-5 -808,-5 -1205,-5 -900,0 -1785,16 -2701,93 -5136,201 -10316,1077 -15311,2733 -4999,1599 -9854,4147 -14821,6558 -3782,1969 -7796,3464 -11939,4521 -4424,-258 -8869,-418 -13330,-418 -2174,0 -4352,36 -6534,120 -4666,126 -9315,450 -13944,929 -6620,-957 -13113,-2267 -19483,-3364 -6618,-1153 -13186,-1655 -19764,-1655 -3902,0 -7812,176 -11738,494 -21106,1560 -42031,7695 -63386,12800z"/>
  <g style="clip-path:url(#id4)">
   <image x="978579" y="232562" width="8118" height="6108" xlink:href="404_Images\404_ImgID5.png"/>
  </g>
  <path class="fil5" d="M710489 305990c-5514,0 -11036,-438 -16489,-1121 -7052,-1029 -13928,-3046 -20398,-5763l253 -764c6836,1427 13648,2307 20491,2480 683,12 1362,16 2045,16 6161,0 12286,-478 18394,-1270 13563,-1817 26993,-4914 40656,-7828 9167,-1917 18554,-3553 28047,-4537 4629,-479 9278,-803 13944,-929 2182,-84 4360,-120 6534,-120 4461,0 8906,160 13330,418 7447,434 14844,1146 22183,1853 4839,406 9745,719 14632,719 8949,0 17823,-1049 26048,-4464 3171,-1239 6072,-3043 8849,-4927 1307,-1089 2628,-2051 3890,-3240 1306,-1161 2693,-2451 4541,-3456 3966,-2113 8130,-1499 10706,-2286 2395,-519 4782,-2975 8122,-4911 6329,-3894 13418,-6265 20414,-7720 7013,-1534 13985,-2367 20833,-3296 6715,-1036 13896,-1763 19715,-4033 2817,-1270 5317,-3148 6330,-6076 1016,-2842 919,-6555 -1556,-8782l113 -169 1197 61c2777,2130 3553,6200 2890,9580 -639,3974 -3685,7322 -7005,9183 -3359,1985 -6904,2958 -10295,3938 -3436,928 -6889,1780 -10340,2440 -13756,2785 -27383,4609 -38993,10693 -1447,772 -2833,1487 -4485,2451 -1619,897 -3681,1865 -5867,2159 -1390,168 -2665,196 -3838,196 -297,0 -590,0 -880,-4 -289,0 -575,-4 -852,-4 -1632,0 -3038,68 -4260,611 -2547,1069 -5437,3637 -8559,5422 -3143,1779 -6329,3439 -9714,4596 -13458,4907 -27812,5462 -41785,5715 -14013,221 -27853,124 -41525,1005 -13635,916 -27024,3693 -40696,6321 -13655,2512 -27572,5152 -41798,5726 -1604,81 -3214,117 -4822,117z"/>
  <path class="fil5" d="M667767 319283l-739 -316c2005,-5687 7760,-9393 13610,-10474 1957,-377 3911,-521 5852,-521 3982,0 7900,610 11637,1092 3172,447 6337,644 9504,644 3786,0 7564,-282 11337,-760 -6514,1052 -13008,2206 -19491,3432 -947,172 -1896,350 -2844,534 -4525,-896 -8922,-1969 -13278,-1969 -779,0 -1551,36 -2327,113 -5301,505 -10717,3203 -13261,8225zm47597 -4633c6140,-679 12292,-1278 18445,-1848 -482,80 -961,157 -1439,233 -5561,916 -11280,1519 -17006,1615zm10400 -6759c1820,-329 3641,-695 5453,-1085 10975,-2343 21909,-5574 33319,-7853 10532,-2226 21459,-2812 32060,-2812 920,0 1836,3 2753,11 19510,454 38796,997 58165,997 3356,0 6708,-16 10067,-53 11361,-152 22729,-292 34094,-626 11349,-571 22874,168 32796,-4023 4959,-2074 8933,-5594 12281,-10115 3368,-4420 6779,-9387 11377,-13145 9174,-7591 20740,-10866 31923,-13036 22533,-4059 45194,-7362 68108,-8901 7688,-431 15387,-639 23083,-639 15243,0 30481,823 45632,2411 22814,2271 45411,6458 67480,12385l-160 788c-19242,-2628 -38454,-4842 -57700,-6281 -2049,-378 -4107,-720 -6172,-1028 -9006,-1311 -18112,-2115 -27226,-2115 -784,0 -1571,5 -2355,16 -5257,57 -10501,423 -15713,1029 -2572,-20 -5148,-27 -7724,-27 -6297,0 -12590,55 -18888,148 -22632,370 -45455,1334 -67895,4778 -11047,1892 -22271,5175 -30621,12546 -2046,1853 -3910,3854 -5565,6084 -1644,2238 -3143,4646 -4795,7033 -3135,4826 -7696,9435 -13202,12052 -5448,2744 -11372,4035 -17155,4842 -2375,326 -4726,579 -7060,787 -3280,-128 -6555,-236 -9835,-333 -22177,-732 -44364,-1185 -66551,-1185 -4924,0 -9851,24 -14773,68 -27106,438 -54251,2118 -81228,5398 -4671,558 -9324,1192 -13973,1884z"/>
  <g style="clip-path:url(#id5)">
   <image x="658295" y="319364" width="10127" height="10127" xlink:href="404_Images\404_ImgID6.png"/>
  </g>
  <path class="fil3" d="M975171 384903c-734,0 -1454,-56 -2146,-164 -2257,-257 -4464,-731 -6610,-731 -1093,0 -2170,121 -3231,461l-289 -750c1768,-757 3628,-949 5477,-949 1636,0 3256,149 4787,197 333,24 666,40 996,40 743,0 1479,-69 2186,-205l5345 270c-1961,1302 -4300,1831 -6515,1831z"/>
  <path class="fil5" d="M981686 383072l-5345 -270c2034,-393 3846,-1346 5056,-2829 847,-1093 1137,-2355 855,-3617 -245,-1302 -1265,-2861 -1410,-5112 -202,-2202 808,-4404 2134,-5911 1346,-1527 2941,-2625 4585,-3504 1683,-928 3340,-1407 4955,-2014 1639,-570 3256,-1229 4919,-1719 3351,-873 6691,-1914 10114,-2451 6804,-1407 13720,-1973 20592,-2215 2299,-68 4598,-97 6892,-97 7455,0 14873,306 22243,611 7370,306 14688,612 21926,612 9882,0 19618,-571 29147,-2488 2536,-531 5232,-1781 6916,-3352 836,-775 1310,-1580 1434,-2114 149,-474 37,-1117 -264,-1679 -523,-1130 -3143,-2500 -6330,-3810 -3005,-1334 -6061,-2581 -9139,-3765 -12376,-4658 -25345,-7954 -38485,-10734 -26411,-5385 -52966,-10598 -79614,-14925 -26671,-4269 -53612,-7045 -80638,-7355 -2089,-28 -4183,-40 -6269,-40 -11424,0 -22850,378 -34263,900 -13506,592 -27021,1342 -40511,2102 -5092,258 -10184,510 -15271,763 -1431,-40 -2862,-71 -4296,-92 -1519,-40 -3033,-56 -4548,-56 -10324,0 -20577,864 -30731,2331 -8661,558 -17312,1197 -25956,1960 -2194,197 -4385,395 -6575,600 -6153,570 -12305,1169 -18445,1848 -5076,563 -10143,1182 -15203,1889 -11959,1587 -23939,3227 -35123,7660l44 -1455c4614,-2364 9521,-4192 14488,-5683 5626,-1695 11340,-3038 17063,-4147 948,-184 1897,-362 2844,-534 6483,-1226 12977,-2380 19491,-3432 2262,-366 4529,-720 6796,-1057 4649,-692 9302,-1326 13973,-1884 26977,-3280 54122,-4960 81228,-5398 4922,-44 9849,-68 14773,-68 22187,0 44374,453 66551,1185 3280,97 6555,205 9835,333 23813,925 47604,2701 71322,5266 27014,2820 53810,6911 80533,11874 13374,2560 26797,5666 39865,10280 3251,1193 6510,2391 9689,3805 1579,708 3147,1318 5004,2371 1779,1013 3833,2508 5271,4899 1383,2360 1926,5285 1222,8097 -695,2762 -2282,4823 -3906,6346 -3331,2994 -7021,4657 -11091,5474 -8609,1619 -17148,2182 -25615,2182 -19080,0 -37808,-2857 -56192,-2938 -6639,57 -13294,149 -19825,1117 -3299,313 -6489,1121 -9728,1760 -1612,370 -3163,908 -4755,1355 -1579,486 -3219,872 -4545,1523 -2757,1238 -5124,3263 -5124,5670 -108,1177 647,2684 962,4717 329,2086 -455,4369 -1854,5812 -513,542 -1073,1008 -1671,1403z"/>
  <path class="fil5" d="M737599 358867c-1853,0 -3894,-273 -6008,-1289 -2713,-1286 -4863,-4277 -5216,-7215 -442,-2921 148,-5661 1378,-8117 611,-1210 1475,-2435 2483,-3391 977,-925 2062,-1701 3171,-2332 2222,-1285 4529,-1953 6691,-2395 2166,-478 4179,-699 6262,-976 4135,-539 8294,-832 12429,-1146 8294,-453 16488,-1133 24691,-1952l24621 -2746c8222,-868 16453,-1157 24667,-1482 2905,-133 5858,-241 8841,-241 5465,0 11039,369 16629,1639 4283,1037 8599,2520 12550,4875 3922,2363 7511,5486 10095,9263l2154 3146 -2938 1733c-4803,2836 -9926,5071 -15214,6626 -5281,1563 -10742,2404 -16148,2496l-124 -796c5128,-1531 10019,-3496 14664,-5814 3404,-1704 6667,-3626 9773,-5736 -4588,-3946 -10392,-6256 -16621,-7446 -3721,-735 -7583,-1214 -11525,-1427 -3947,-321 -7949,-426 -12052,-489 -8210,-145 -16395,-229 -24594,-639 -5815,-254 -11638,-515 -17457,-515 -2379,0 -4754,44 -7129,149 -8178,374 -16327,1410 -24276,3404 -3982,923 -7922,2001 -11836,3102 -3933,1120 -7920,2014 -10561,3576 -666,395 -1253,840 -1760,1339 -473,461 -847,903 -1193,1510 -671,1166 -1005,2633 -872,3786 161,1146 539,1933 1479,2572 944,642 2588,932 4437,1057 7996,181 16395,466 24610,1431l36 803c-8195,1676 -16203,2782 -24614,3581 -490,32 -1001,56 -1523,56z"/>
  <path class="fil5" d="M873473 364409c-571,0 -1142,-16 -1704,-49 -6166,-264 -11972,-1820 -17642,-3512l165 -787c4846,614 9688,1362 14430,1362 1005,0 2005,-33 3002,-109 5639,-385 11111,-2234 15111,-5706 2021,-1801 3423,-3682 4706,-6294 710,-1313 1486,-2828 2833,-4283 1357,-1443 3243,-2580 5163,-3030 1213,-289 2375,-405 3492,-405 2464,0 4706,558 6764,1048 2997,812 5618,1519 8479,2117 8535,1906 17304,2798 26008,2798 2721,0 5437,-89 8138,-258 5506,-337 10038,-1985 11995,-6047 957,-1946 1118,-3999 137,-5642 -787,-1455 -2254,-2412 -3372,-2412 -245,0 -474,45 -671,140l-15122 7319 12233 -11401 2962 -2765c-25527,-4119 -51281,-6607 -77109,-7765 -13672,-742 -27359,-1052 -41023,-1695 -12292,-397 -24570,-1117 -36726,-1117 -1367,0 -2732,8 -4098,28 -26926,454 -53545,5643 -80120,11787l-19968 4669c-6218,1263 -12402,4388 -10787,9251 700,2328 3111,4530 5808,6358 2740,1912 5605,3661 8547,5292 5888,3267 12236,5719 18819,7539l-73 362c-747,36 -1494,77 -2241,120 -6109,-956 -12116,-2744 -17892,-5135 -3238,-1315 -6361,-2918 -9387,-4695 -2990,-1784 -6422,-3954 -8231,-8136 -835,-2099 -968,-4498 -277,-6760 679,-2291 2199,-4083 3762,-5434 3170,-2700 6904,-3982 10303,-4974 6568,-1953 13146,-3902 19785,-5698 15222,-4212 30826,-7962 46668,-10248 10154,-1467 20407,-2331 30731,-2331 1515,0 3029,16 4548,56 1434,21 2865,52 4296,92 12434,342 24707,1318 36956,2412 13671,1109 27298,2785 40926,4308 27233,3279 54463,6108 81842,8069l4458 322 -3151 3436 -1962 2138c1841,855 3320,2162 4405,3761 1137,1576 1821,3713 1905,5674 80,1957 -278,3914 -1009,5663 -1395,3512 -4188,6332 -7471,8005 -3230,1659 -6647,2306 -9785,2572 -2849,237 -5698,350 -8544,350 -9379,0 -18686,-1247 -27748,-3501 -5229,-1173 -10500,-3629 -14432,-3629 -497,0 -971,41 -1421,128 -1938,314 -3135,1572 -4679,4204 -1478,2612 -3777,5497 -6418,7354 -4845,3533 -10688,5084 -16314,5084z"/>
  <path class="fil5" d="M725772 369757c-2769,0 -5534,-284 -8259,-647 -3520,-361 -6976,-1241 -10351,-2378 -3384,-1105 -6752,-1949 -10208,-2178 -506,-37 -1017,-53 -1527,-53 -1430,0 -2881,121 -4336,245 -1451,124 -2906,250 -4340,250 -121,0 -242,0 -362,-5 -3516,-80 -6767,-884 -10288,-2025 -3407,-1237 -7157,-3255 -9013,-6727l498 -631c3577,832 6547,1053 9838,1242 3222,249 6787,450 10055,1527 3294,1077 6477,2877 9841,3608 1981,439 3998,631 6032,631 1414,0 2837,-92 4260,-261 3467,-437 6876,-752 10235,-831 1262,-53 2512,-129 3762,-202 747,-43 1494,-84 2241,-120 1191,-60 2375,-101 3566,-101 144,0 293,0 442,5 6658,128 13205,260 20470,1105l202 779c-6094,4212 -13286,6064 -20379,6691 -796,52 -1587,76 -2379,76z"/>
  <path class="fil3" d="M1135824 391253c-11497,0 -22979,-803 -34424,-2078l35228 1796 -25 282c-261,0 -518,0 -779,0z"/>
  <path class="fil5" d="M1136628 390971l-35228 -1796c-1904,-213 -3805,-437 -5705,-674 -6784,-884 -13552,-1962 -20283,-3243 -6744,-1210 -13418,-2786 -20081,-4372l-4705 -1123 1872 -4705c1121,-2833 3873,-4903 6172,-5646 2339,-839 4458,-1025 6386,-1109l10348 -245c6840,-121 13676,-353 20507,-724 13656,-855 27323,-1796 41007,-3034 6827,-691 13662,-1447 20459,-2500 3403,-623 6891,-844 9704,-2230 1418,-658 2729,-1575 3416,-2749 671,-1149 724,-2588 132,-3822 -1194,-2523 -4445,-4343 -7201,-6087 -2881,-1696 -5988,-2962 -9134,-3943 -3074,-1004 -6483,-1358 -10123,-2680 -1792,-643 -3662,-1531 -5385,-3026 -1740,-1459 -3102,-3878 -3432,-6309l-269 -2005 -2130 -459 -24 -2829c-16,-1888 302,-3853 1093,-5642 803,-1768 1937,-3319 3226,-4574 2617,-2462 5615,-3958 8596,-4979 2951,-1012 6194,-1507 9014,-1771 2874,-305 5747,-543 8628,-639 2159,-100 4316,-149 6470,-149 3605,0 7202,136 10782,381 5723,555 11421,1178 17011,2428l-80 799c-5699,117 -11336,117 -16959,592 -5609,324 -11191,871 -16733,1583 -5502,887 -11276,1306 -15829,3167 -2344,876 -4469,2105 -5952,3592 -732,756 -1242,1540 -1571,2371 1957,450 3917,900 5866,1398l4156 1065 -1708 3762c-981,2162 -2780,3813 -4874,4662 -109,43 -221,88 -338,128 699,567 1551,1093 2500,1548 2716,1373 6172,2181 9523,3677 3312,1418 6399,3246 9332,5243 1466,1005 2869,2078 4235,3232 1342,1185 2801,2511 3641,4432 868,1897 747,4292 -377,6092 -1102,1797 -2761,2942 -4421,3754 -1668,828 -3456,1346 -5204,1696l-5060 1097c-6755,1450 -13510,2954 -20301,4280 -13568,2825 -27307,4850 -41119,6063 -6909,648 -13828,1154 -20761,1552 -944,64 -1909,113 -2872,148 1402,354 2804,707 4211,1070 6547,1603 13125,3151 19723,4617 13189,3018 26503,5542 39897,8117l-48 518z"/>
  <path class="fil5" d="M1114513 295446c-4496,0 -8989,-158 -13470,-459 -4352,-374 -8704,-800 -13013,-1527 -4348,-792 -8443,-1265 -13249,-2729 -2354,-775 -4818,-1924 -6908,-3781 -2138,-1938 -3640,-4316 -4364,-7036 -751,-2665 -623,-5889 921,-8504 1523,-2604 3933,-4107 6184,-5008 4533,-1824 9102,-1857 13447,-2017l12996 -237c6024,-140 12108,-518 18208,-518 2656,0 5313,72 7973,265 8736,671 17340,2591 25687,5188 4171,1306 8282,2809 12289,4557 2029,832 4159,1905 6020,3396 1848,1471 3379,3677 3552,6016l-780 208c-1952,-3781 -6079,-4661 -10102,-5545l-12527 -2600c-8338,-1672 -16669,-3026 -25007,-4586 -8323,-1579 -16758,-3483 -25334,-3777 -1209,-45 -2419,-68 -3632,-68 -3067,0 -6137,144 -9183,426 -4211,346 -8383,1370 -11678,3247 -1595,969 -2789,2231 -3212,3516 -408,1266 -272,2664 318,4068 1242,2917 3722,4640 7299,5548 3499,852 8025,1202 12179,1668l12668 1291c16882,1844 33837,2777 51181,3809l76 800c-12598,3070 -25563,4389 -38539,4389z"/>
  <path class="fil3" d="M1209011 294223l48 -1671c1307,-446 2604,-920 3895,-1427l358 723c-1403,840 -2838,1631 -4301,2375z"/>
  <path class="fil5" d="M1066760 313380c-1125,0 -2343,-76 -3629,-349 -2141,-379 -5047,-1869 -6386,-4497l-968 -1901 985 -1652 945 -1596c-7652,-3467 -15296,-6947 -22874,-10584 -4313,-2098 -9135,-4007 -13154,-7587 -4087,-3477 -6434,-9138 -5630,-14535 390,-2730 2037,-5406 4425,-6884 2394,-1528 5132,-1878 7631,-1965 1539,8 3033,24 4513,24 3380,0 6647,-77 10014,-466 9588,-1029 18952,-3666 28653,-5450 4549,-860 9135,-1583 13744,-2122 5212,-606 10456,-972 15713,-1029 784,-11 1571,-16 2355,-16 9114,0 18220,804 27226,2115 2065,308 4123,650 6172,1028 17384,3202 34284,8881 49832,16971l-310 743c-18607,-5867 -37482,-10010 -56558,-12116 -9533,-1097 -19113,-1503 -28690,-1579 -518,0 -1036,0 -1555,0 -9053,0 -18144,204 -27214,1056 -9588,904 -19306,2412 -29134,3071 -2400,140 -4803,289 -7214,289 -64,0 -124,0 -185,-4 -81,4 -165,4 -245,4 -917,0 -1825,-28 -2729,-56 -900,-24 -1789,-53 -2668,-53 -547,0 -1089,8 -1623,37 -2323,104 -4606,502 -6338,1659 -1752,1142 -2773,3046 -3018,5145 -249,2105 218,4343 1157,6297 908,1973 2363,3556 4127,4927 3509,2712 8038,4174 12635,5887 9166,3322 18244,6855 27331,10371l3596 1391 -1892 3573 -1162 2190c447,77 953,112 1515,112 684,0 1452,-53 2302,-137l9710 -860 19422 -1699c12960,-1033 25929,-1813 38913,-2520 12971,-695 26020,-1029 38827,-1840 11437,-804 22810,-2492 33732,-6221l-48 1671c-4396,2243 -9030,4064 -13751,5579 -6321,1941 -12808,3294 -19297,4375 -13025,2110 -25957,3071 -38893,4397 -12948,1161 -25896,2247 -38868,3083l-19462 1105 -9733 537c-696,41 -1447,81 -2247,81z"/>
  <path class="fil6" d="M799030 265320c-1542,-4618 -3878,-8313 -7112,-11211 -3348,-2784 -7386,-4284 -12114,-4497 -8030,-361 -14279,3189 -18967,10518 -4690,7450 -7134,17752 -7448,31025 -313,13272 1753,23657 6094,31035 4337,7496 10411,11361 18221,11712 7809,352 13833,-2968 18070,-9959 4237,-6871 6566,-16940 6877,-30092 249,-10521 -959,-20033 -3621,-28531zm-5215 53029c-1516,3643 -3674,6418 -6473,8327 -2797,1908 -6232,2831 -10521,2637 -4290,-192 -7987,-2154 -11198,-6009 -5782,-6963 -8503,-17619 -8167,-31846 291,-12316 2383,-21678 6388,-28080 4004,-6404 9140,-9404 15629,-9111 6489,292 11360,3862 14614,10592 3254,6729 4805,15656 4542,26776 -262,11119 -1903,20023 -4814,26714zm65637 -33312c-3277,-5774 -8158,-8866 -14757,-9163 -6709,-302 -11839,2460 -15499,8279 -3664,5940 -5607,13632 -5833,23198 -138,5860 403,10910 1736,15040 1334,4130 3023,7197 5291,9095 2265,2017 4323,3426 6397,4238 5890,2300 11407,1830 16437,-1414 2011,-1227 3813,-2942 5297,-5148 1484,-2208 2657,-5266 3746,-9407 1086,-4020 1638,-8784 1766,-14164 76,-7897 -1414,-14786 -4581,-20554zm-28678 39525c-2425,-4538 -3502,-10212 -3348,-16789l23 -956c245,-10402 2629,-18076 7034,-22784 2595,-2636 5707,-3933 9447,-3764 5830,262 9952,2842 12480,7743 2526,4901 3705,10940 3539,17993 -407,17219 -5571,26082 -15604,26708l-1213 64 -1317 -178c-4938,-701 -8619,-3380 -11041,-8037zm89275 -36798c-3278,-5773 -8158,-8865 -14758,-9163 -6708,-302 -11838,2461 -15499,8281 -3662,5939 -5606,13632 -5831,23197 -139,5859 402,10910 1736,15040 1334,4129 3023,7197 5290,9095 2265,2017 4324,3426 6396,4238 5892,2299 11407,1830 16438,-1415 2012,-1226 3814,-2940 5297,-5147 1483,-2208 2656,-5267 3745,-9408 1086,-4019 1640,-8783 1766,-14164 76,-7895 -1412,-14786 -4580,-20554zm-28678 39525c-2425,-4538 -3503,-10211 -3348,-16789l23 -955c246,-10403 2629,-18076 7034,-22784 2595,-2637 5707,-3934 9447,-3765 5830,263 9952,2842 12479,7743 2527,4901 3706,10940 3539,17994 -406,17218 -5570,26081 -15604,26708l-1213 65 -1317 -179c-4937,-702 -8617,-3380 -11040,-8038zm59334 14401c8147,8 14775,-891 19778,-2940 9893,-3982 14949,-12973 15285,-27200 285,-12076 -2703,-20709 -9072,-26142 -3020,-2651 -6071,-3985 -9041,-4118 -5499,-249 -10736,2388 -15708,7791l169 -7174 -4070 -183 -2116 89675 4070 183 705 -29892zm105 -4424l995 -42208c2603,-2994 5083,-5396 7434,-7085 2352,-1689 4902,-2413 7652,-2289 4289,193 7968,2872 10820,8027 2851,5155 4152,10721 4013,16579 -140,5979 -1023,10727 -2651,14363 -4067,9035 -13525,13276 -28263,12613zm54656 2699l-105 4425 2749 124c4509,203 9354,181 14314,-74 3196,-96 5737,-460 7627,-1213 1887,-634 3887,-1500 6009,-2723 4239,-2321 6428,-6412 6566,-12272 110,-4662 -1013,-8422 -3261,-11158 -2251,-2615 -5068,-4537 -8457,-5528 -3390,-990 -6669,-1976 -9951,-2841 -3396,-750 -6224,-2195 -8492,-4093 -2268,-1898 -3419,-4463 -3339,-7811 76,-3227 1672,-5550 4896,-6840 3111,-1177 6866,-1726 11375,-1523 4510,202 9995,1048 16563,2661l111 -4664c-6354,-1363 -11949,-2214 -16789,-2432 -13198,-593 -19906,3773 -20124,12978 -105,4425 1026,7827 3282,10203 2257,2376 5079,4058 8475,4810 3283,866 6567,1612 9963,2364 3285,746 6117,2071 8381,4088 2264,2017 3413,4702 3334,8049 -82,3468 -1024,6059 -2723,8017 -1807,1954 -4922,3370 -9353,4486 -4541,1112 -11484,1398 -21051,967zm65935 -4212l-8468 -382 -269 11359 8468 381 269 -11358zm30907 1391l-8468 -382 -268 11360 8469 380 267 -11358zm30906 1391l-8469 -381 -268 11359 8468 381 269 -11359z"/>
  <path class="fil0" d="M449965 897086c0,0 -77519,3572 -45808,-30393 31715,-33962 89856,16090 89856,16090 7045,-8941 7045,-53628 7045,-53628 -19382,-75080 -88092,-25024 -128612,-12514 -40524,12514 -29955,-10726 -29955,-10726 24667,-60778 142710,-21022 142710,-21022 -3525,-46049 -33471,-57631 -33471,-57631 -110999,-53628 -109239,39326 -156807,53630 -47567,14297 -29950,-14304 -29950,-14304 45808,-66141 142708,-71507 142708,-71507 -7049,-41110 -49332,-53625 -49332,-53625 -95139,0 -128612,112619 -145640,67932 -17029,-44695 112165,-76869 112165,-76869 0,0 0,-37542 -54617,-35753 -54616,1788 -81044,110833 -91615,76868 -10571,-33966 35238,-91167 35238,-91167 -139188,-12518 -110998,148369 -110998,148369l-382 23c0,0 -155122,43928 -83704,165785 0,0 30965,-66674 65714,-71721 34752,-5047 -50659,66360 -28585,117079 22075,50719 55420,34459 55420,34459 0,0 -27393,-132088 19684,-135878 47073,-3789 -38459,75611 2762,162615 0,0 29433,33245 69009,21877 0,0 -37221,-90938 1684,-161481 0,0 17773,-28503 25679,21195 7909,49694 -75425,88357 20300,166624 0,0 23266,22368 65698,5637 0,0 -86457,-90716 -43155,-139607 0,0 16062,-19734 22503,22742 6442,42477 -8249,127001 66838,112193 0,0 39697,-19362 44583,-29683 0,0 -69651,-31481 -53223,-75195 16432,-43711 46841,28724 46841,28724 0,0 -213,65556 59304,38514l49488 -24143 527 338 0 -56309c-1760,-66143 -59902,-37538 -59902,-37538z"/>
  <path class="fil0" d="M1203317 1040823c0,0 56735,-62216 58463,-11830 1728,50389 -81281,56594 -81281,56594 1451,12265 35738,46552 35738,46552 72472,42734 86786,-48384 108277,-89073 21484,-40689 31206,-14753 31206,-14753 27708,65552 -93357,125619 -93357,125619 38032,32627 69895,18534 69895,18534 126302,-44012 53633,-113977 79160,-161448 25521,-47465 33949,-12004 33949,-12004 15605,85886 -54629,164345 -54629,164345 36951,26138 78990,3300 78990,3300 72994,-72994 12272,-185082 59624,-163860 47356,21223 -27081,145033 -27081,145033 0,0 28801,28802 69333,-14472 40531,-43276 -22854,-147210 11312,-129267 34171,17947 42912,96982 42912,96982 116386,-97182 -28674,-198991 -28674,-198991l277 -308c0,0 85308,-152717 -62971,-191415 0,0 27390,74906 4605,105444 -22789,30533 -12047,-89785 -67895,-111759 -55850,-21977 -68952,16084 -68952,16084 0,0 122352,80324 89142,119349 -33205,39024 -28504,-87522 -126876,-122645 0,0 -48091,-2922 -69731,36163 0,0 98324,41212 122596,125181 0,0 8234,35504 -35959,3444 -44193,-32061 -9922,-125658 -143413,-112264 0,0 -35010,687 -54733,46077 0,0 135938,3271 140222,73999 0,0 2817,27464 -34713,-181 -37534,-27648 -91107,-103765 -137352,-34797 0,0 -15601,45314 -11434,56976 0,0 77588,-29284 98521,16862 20933,46146 -57972,13901 -57972,13901 0,0 -50134,-50462 -75044,15945l-19451 56495 -663 144 43204 43200c52099,49393 74755,-17156 74755,-17156z"/>
  <path class="fil7" d="M437325 1006361c6434,117 11933,703 16495,1989 4562,1287 7956,2925 10296,4914 4327,3626 6433,7838 6433,12517 0,12518 -10645,18952 -32054,19303l-1170 -116 0 -38607zm13804 41764c3042,-467 5499,-1052 7253,-1637 1756,-585 3861,-1520 6201,-2808 6903,-3392 10295,-9476 10295,-18250 0,-7370 -3510,-13219 -10646,-17314 -7136,-4095 -17548,-6083 -31235,-6200l0 82008 4328 0 0 -34629c5382,-351 9944,-702 13804,-1170zm74637 -46560c-8072,0 -14858,2691 -20239,8072 -5382,5382 -8072,12284 -8072,20706l0 53581 4328 0 0 -38606 33224 0 0 38606 4329 0 0 -75808c-3159,-4328 -7605,-6551 -13570,-6551zm-23983 39425l0 -10529c0,-6434 2223,-12050 6785,-17081 4446,-5030 10061,-7486 16963,-7486 3861,0 7019,1286 9476,3861l0 31235 -33224 0zm99555 -33108c-4094,-3861 -8540,-5849 -13336,-5849 -4796,0 -9592,2456 -14389,7487 -2340,2457 -4329,5967 -5850,10529 -1520,4562 -2339,9593 -2339,15325 0,12050 1520,21760 4562,29364 1404,3393 3276,6201 5498,8657 2223,2457 4329,4328 6552,5616 5498,3392 13921,5030 25269,5030l0 -40946 -15793 0 0 4329 11464 0 0 32171c-11464,-584 -19887,-4211 -25152,-10880 -5381,-6667 -8072,-17664 -8072,-33224 0,-7604 1638,-14389 5031,-20355 3392,-5850 7954,-8775 13688,-8775 3392,0 6551,1170 9358,3627 2691,2457 4446,5850 5147,10061l4329 117c0,-4328 -1989,-8424 -5967,-12284zm75223 76042l0 -4329 -37553 0 0 -38956 37553 0 0 -4329 -37553 0 0 -29949 37553 0 0 -4328 -41881 0 0 81891 41881 0zm98850 0l4329 0 0 -81891 -4329 0 0 71947 -31352 -72064 -6201 0 0 82008 4329 0 0 -74521 33224 74521zm78499 -67969c-1755,-4446 -4328,-7956 -7838,-10646 -3627,-2574 -7956,-3861 -12986,-3861 -8540,0 -15092,3743 -19887,11113 -4797,7488 -7137,17666 -7137,30651 0,12986 2457,23047 7253,30065 4797,7137 11348,10647 19654,10647 8306,0 14624,-3510 18952,-10529 4329,-6902 6551,-16846 6551,-29715 0,-10294 -1520,-19537 -4562,-27725zm-4212 52058c-1521,3627 -3743,6434 -6668,8423 -2925,1989 -6551,3042 -11114,3042 -4562,0 -8540,-1755 -12049,-5382 -6318,-6551 -9476,-16845 -9476,-30766 0,-12050 1989,-21292 6083,-27727 4095,-6434 9476,-9593 16378,-9593 6902,0 12167,3276 15793,9710 3627,6435 5499,15092 5499,25971 0,10880 -1521,19654 -4446,26322zm47380 -61652l18834 0 0 -4328 -41881 0 0 4328 18718 0 0 77563 4329 0 0 -77563zm80719 34278l37553 0 0 -4329 -37553 0 0 -29949 37553 0 0 -4328 -41882 0 0 81891 4329 0 0 -43285zm107276 -24684c-1755,-4446 -4329,-7956 -7838,-10646 -3627,-2574 -7956,-3861 -12986,-3861 -8540,0 -15092,3743 -19887,11113 -4797,7488 -7137,17666 -7137,30651 0,12986 2457,23047 7253,30065 4797,7137 11348,10647 19654,10647 8306,0 14624,-3510 18952,-10529 4329,-6902 6551,-16846 6551,-29715 0,-10294 -1520,-19537 -4562,-27725zm-4212 52058c-1521,3627 -3744,6434 -6668,8423 -2925,1989 -6551,3042 -11114,3042 -4563,0 -8540,-1755 -12049,-5382 -6318,-6551 -9476,-16845 -9476,-30766 0,-12050 1989,-21292 6083,-27727 4095,-6434 9476,-9593 16378,-9593 6902,0 12167,3276 15793,9710 3627,6435 5499,15092 5499,25971 0,10880 -1521,19654 -4446,26322zm76505 -12400l0 -53580 -4327 0 0 53462c0,8074 -1638,14039 -4797,18134 -3159,4094 -7137,6201 -11699,6201 -4680,0 -8656,-2107 -11815,-6201 -3276,-4095 -4915,-10178 -4915,-18134l0 -53462 -4327 0 0 53580c0,7956 1754,14740 5147,20239 3392,5499 8657,8305 15559,8305 6902,0 12167,-2573 15793,-7603 3627,-5031 5381,-11933 5381,-20941zm66568 28311l4329 0 0 -81891 -4329 0 0 71947 -31352 -72064 -6201 0 0 82008 4329 0 0 -74521 33224 74521zm71012 -64694c-2691,-5499 -6669,-9710 -11933,-12518 -6200,-3158 -14623,-4796 -25269,-4796l0 82359c10061,0 18367,-1638 25035,-5031 3627,-1754 6668,-4211 9125,-7135 2340,-2926 4212,-6903 5615,-11699 1405,-4797 2106,-10061 2106,-15793 0,-10529 -1520,-18953 -4679,-25387zm-6434 49720c-5031,7135 -13805,10762 -26440,10880l0 -73352c22111,0 33225,12284 33225,36852 0,10645 -2223,19185 -6785,25620z"/>
  <path class="fil1" d="M1246887 900903c12365,-44096 92228,-80939 92228,-80939 136922,-67235 73500,-260423 73500,-260423l-35388 21958 26853 -28347 -3324 -20435c-17107,-40673 -47359,-14773 -47359,-14773 -36900,-14972 -66540,42297 -70708,62739 -4167,20447 -19362,28340 -19362,28340l-2347 40840 -4987 -30654c-83723,84050 -33282,182234 -9283,200807 24003,18571 8270,50824 8270,50824l-8093 30063z"/>
  <path class="fil2" d="M1353397 517944c-23927,107937 -45339,220418 -84363,324058 -5992,15918 -15456,28826 -23847,43542 -6642,11658 -16348,36328 -6157,48778 11160,13635 19515,-49373 21605,-56690 5621,-19660 18176,-36796 22142,-56993 6282,-31996 66420,-242572 70620,-302695z"/>
  <path class="fil2" d="M1337748 518909l-274 -257 186 734c3785,4614 7873,8979 12229,13057l-12141 -13534z"/>
  <path class="fil2" d="M1330233 517728c2182,9250 7965,17601 15853,22901l-15853 -22901z"/>
  <path class="fil2" d="M1318177 525178c2447,14004 10754,26893 22501,34894l-22501 -34894z"/>
  <path class="fil2" d="M1306330 535039c4003,15790 15553,28770 28858,38177l-28858 -38177z"/>
  <path class="fil2" d="M1295950 550311c2589,6979 7704,12682 12787,18123 8126,8697 16826,17437 27906,21785l-40693 -39908z"/>
  <path class="fil2" d="M1284963 570415c10943,16738 24989,32889 44041,38974l-44041 -38974z"/>
  <path class="fil2" d="M1279153 592976c9270,17594 26904,30541 46467,34123l-46467 -34123z"/>
  <path class="fil2" d="M1267627 606832c5602,10272 11763,20451 20362,28380 8596,7928 20009,13446 31687,12707l-52049 -41087z"/>
  <path class="fil2" d="M1264520 620673c3862,11762 9517,23079 17758,32313 8243,9235 19210,16300 31370,18606l-49128 -50919z"/>
  <path class="fil2" d="M1260787 650933c-699,5083 1061,10264 3867,14563 2804,4300 6602,7845 10399,11297 10292,9339 21805,18722 35614,20277l-49880 -46137z"/>
  <path class="fil2" d="M1239055 640580c1479,16433 3239,33669 12550,47292 10930,15990 30063,23883 48139,30839l-60689 -78131z"/>
  <path class="fil2" d="M1223016 665524c4871,19057 12289,37764 24401,53263 12113,15500 29296,27608 48686,30932l-73087 -84195z"/>
  <path class="fil2" d="M1213910 688008c462,15637 9198,29782 18875,42076 14717,18686 34284,36063 57994,37927l-76869 -80003z"/>
  <path class="fil2" d="M1209984 731016c6277,21427 25498,36151 44064,48561 8628,5766 17900,11553 28264,12104l-72328 -60665z"/>
  <path class="fil2" d="M1219178 780437c10960,7013 21324,14973 30932,23750 6900,6310 14652,13527 23975,12872l-54907 -36622z"/>
  <path class="fil2" d="M1352895 532970c2857,530 5863,233 8559,-853 1418,-566 2744,-1341 4010,-2193 5361,-3597 9774,-8592 12675,-14355l-25244 17401z"/>
  <path class="fil2" d="M1349933 540926c8170,800 16585,-952 23721,-5006 7137,-4063 12952,-10421 16288,-17920l-40009 22926z"/>
  <path class="fil2" d="M1345576 561683c4055,-1635 8600,-1105 12961,-1366 15820,-941 29569,-12952 35737,-27548l-48698 28914z"/>
  <path class="fil2" d="M1342948 574092c6073,3614 13632,3698 20611,2573 4498,-728 9075,-1997 12539,-4951l-33150 2378z"/>
  <path class="fil2" d="M1340368 589664c7001,1420 14254,487 21299,-718 1482,-253 2981,-523 4364,-1121 1306,-568 2471,-1407 3625,-2243 2294,-1663 4590,-3328 6884,-4991l-36172 9073z"/>
  <path class="fil2" d="M1337185 611772c7170,1060 14479,2121 21632,939 3795,-623 7451,-1868 11096,-3109 7579,-2585 15210,-5189 22223,-9063 7012,-3870 13446,-9123 17549,-16002l-72500 27235z"/>
  <path class="fil2" d="M1332705 626905c7767,2046 15874,2954 23878,2270 15143,-1289 29179,-8117 42810,-14828 6575,-3239 13572,-6876 16936,-13382l-83624 25940z"/>
  <path class="fil2" d="M1328565 646681c14556,6820 31519,5393 47388,2850 7765,-1247 15572,-2746 22753,-5952 7178,-3207 13752,-8286 17429,-15235l-87570 18337z"/>
  <path class="fil2" d="M1319978 673470c16927,8173 36448,11163 54902,7594 18454,-3569 35681,-13836 46946,-28878l-101848 21284z"/>
  <path class="fil2" d="M1313986 697991c5172,3267 10392,6554 16131,8677 5273,1944 10862,2865 16452,3443 13636,1410 27583,844 40769,-2901 13189,-3746 25595,-10782 34697,-21030l-108049 11811z"/>
  <path class="fil2" d="M1308923 723747c17838,10833 39727,12477 60584,11745 14524,-505 29867,-2350 41376,-11219l-101960 -526z"/>
  <path class="fil2" d="M1299912 751447c1215,2000 3364,3218 5458,4264 27435,13655 60911,11095 89061,-1025l-94519 -3239z"/>
  <path class="fil2" d="M1295569 770515c24281,17392 58181,20278 85054,7242l-85054 -7242z"/>
  <path class="fil2" d="M1289685 793003c15709,11602 37028,15195 55670,9395l-55670 -9395z"/>
  <path class="fil2" d="M1284569 816633c6671,4770 15283,5803 23481,5879 7347,69 14701,-518 21950,-1744l-45431 -4135z"/>
  <path class="fil8" d="M855561 887272c0,0 64796,110999 185777,16199 0,0 -113108,65748 -172676,-24916l-13101 8717z"/>
  <path class="fil1" d="M883073 932755c16493,-6808 46977,8821 46977,8821 53520,25812 97500,-40062 97500,-40062l-15238 -5574 15146 1423 5465 -5932c8355,-15017 -6851,-18068 -6851,-18068 -4280,-14912 -28963,-10235 -36232,-6594 -7266,3637 -13338,872 -13338,872l-13085 9099 8198 -8898c-45889,-5466 -63863,33595 -63787,45418 76,11819 -13596,14749 -13596,14749l-11159 4746z"/>
  <path class="fil2" d="M1026072 873363c-38845,18607 -78468,39077 -119622,52026 -6318,1989 -12551,2186 -19081,3154 -5168,763 -15066,3717 -16432,9834 -1496,6698 19828,-5883 22577,-7001 7378,-3001 15643,-3275 22793,-6912 11316,-5766 90323,-37936 109765,-51101z"/>
  <path class="fil2" d="M1022013 868799l11 -149 -180 236c-507,2267 -860,4574 -1061,6889l1230 -6976z"/>
  <path class="fil2" d="M1020570 866211c-2311,2893 -3484,6670 -3211,10364l3211 -10364z"/>
  <path class="fil2" d="M1015390 864306c-3709,4115 -5663,9761 -5293,15283l5293 -15283z"/>
  <path class="fil2" d="M1009519 863044c-3882,5023 -5084,11682 -4770,18019l4770 -18019z"/>
  <path class="fil2" d="M1002341 863534c-1518,2467 -2037,5409 -2483,8274 -711,4582 -1302,9352 28,13792l2455 -22066z"/>
  <path class="fil2" d="M993537 864996c-2504,7379 -4075,15566 -1366,22866l1366 -22866z"/>
  <path class="fil2" d="M985222 868634c-3162,7073 -2897,15592 712,22447l-712 -22447z"/>
  <path class="fil2" d="M978206 868437c-1801,4184 -3445,8519 -3806,13060 -362,4545 687,9368 3717,12764l89 -25824z"/>
  <path class="fil2" d="M973219 870812c-2680,4011 -4790,8459 -5642,13209 -852,4742 -378,9801 1836,14086l3806 -27295z"/>
  <path class="fil2" d="M963043 876936c-1723,1009 -2889,2793 -3532,4686 -647,1892 -824,3910 -969,5903 -385,5397 -497,11184 2344,15790l2157 -26379z"/>
  <path class="fil2" d="M960994 867790c-4682,4400 -9544,9082 -11482,15210 -2273,7194 -95,14954 2118,22167l9364 -37377z"/>
  <path class="fil2" d="M949493 868863c-4674,6076 -8624,12843 -10465,20285 -1840,7439 -1423,15617 2222,22356l8243 -42641z"/>
  <path class="fil2" d="M940414 871479c-4685,3898 -6924,9978 -8362,15898 -2194,9001 -2821,19176 2306,26893l6056 -42791z"/>
  <path class="fil2" d="M926281 880609c-5059,7077 -4951,16504 -4291,25181 300,4030 755,8262 3078,11569l1213 -36750z"/>
  <path class="fil2" d="M913341 895305c482,5048 535,10140 153,15191 -273,3632 -623,7744 1816,10445l-1969 -25636z"/>
  <path class="fil2" d="M1021342 876824c522,1000 1338,1852 2315,2415 518,297 1073,518 1643,703 2387,780 4980,928 7442,434l-11400 -3552z"/>
  <path class="fil2" d="M1018191 877829c1720,2692 4280,4854 7238,6063 2957,1214 6305,1471 9407,687l-16645 -6750z"/>
  <path class="fil2" d="M1010781 881481c1479,848 2407,2371 3532,3645 4091,4622 11080,5947 17035,4332l-20567 -7977z"/>
  <path class="fil2" d="M1006344 883655c354,2729 2142,5072 4167,6937 1302,1201 2793,2306 4529,2656l-8696 -9593z"/>
  <path class="fil2" d="M1000951 886605c1250,2488 3275,4489 5337,6357 438,398 880,788 1394,1073 490,261 1029,415 1563,568 1057,308 2123,610 3183,911l-11477 -8909z"/>
  <path class="fil2" d="M993408 890945c1402,2456 2830,4952 4915,6856 1101,1013 2363,1837 3617,2652 2616,1704 5248,3420 8121,4638 2869,1217 6028,1928 9122,1535l-25775 -15681z"/>
  <path class="fil2" d="M987694 893212c1242,2873 2909,5569 5043,7864 4035,4332 9500,6992 14833,9560 2572,1234 5368,2508 8174,1974l-28050 -19398z"/>
  <path class="fil2" d="M980637 896692c1407,6100 5919,10958 10517,15214 2246,2082 4581,4116 7289,5542 2709,1431 5847,2226 8861,1684l-26667 -22440z"/>
  <path class="fil2" d="M970361 900498c1559,7149 5337,13856 10866,18658 5531,4798 12817,7611 20138,7451l-31004 -26109z"/>
  <path class="fil2" d="M961399 904556c246,2371 491,4762 1223,7029 666,2086 1731,4019 2896,5871 2846,4521 6374,8660 10690,11799 4316,3146 9453,5256 14785,5585l-29594 -30284z"/>
  <path class="fil2" d="M952293 909194c965,8073 5720,15178 10955,21395 3645,4332 7901,8588 13386,9986l-24341 -31381z"/>
  <path class="fil2" d="M941632 913087c-321,857 -180,1805 4,2701 2411,11690 11240,21335 21725,27054l-21729 -29755z"/>
  <path class="fil2" d="M934740 916338c507,11623 7768,22710 18225,27814l-18225 -27814z"/>
  <path class="fil2" d="M926433 919939c221,7607 4245,15002 10501,19326l-10501 -19326z"/>
  <path class="fil2" d="M917963 924055c140,3186 1892,6076 3841,8607 1744,2271 3693,4385 5807,6310l-9648 -14917z"/>
  <path class="fil6" d="M419146 779160l0 65806 138537 0 0 90626 84277 0 0 -90626 43293 0 0 -65806 -43293 0 0 -234359 -91780 0 -131034 234359zm60033 4618l85431 -158164 0 158164 -85431 0zm467564 -187602c-19049,-34058 -52529,-51375 -99285,-51375 -46179,0 -78505,16163 -98708,49066 -20203,32903 -30017,84277 -30017,154123 0,60610 9814,107943 28863,142000 19048,34057 52529,51374 99862,51374 45602,0 77927,-16162 98130,-49065 20204,-32903 30017,-84277 30017,-154123 0,-60610 -9813,-107943 -28862,-142000zm-69269 263798c-6349,13277 -16163,20204 -30016,20204 -14432,0 -24822,-6927 -31171,-21359 -5772,-14431 -8659,-53106 -8659,-116025 0,-63496 2887,-102171 9236,-116024 6350,-13855 16162,-20782 30594,-20782 15586,0 25976,8081 31170,24822 5196,16162 8083,53683 8083,111984 0,64651 -2887,103903 -9237,117180zm136818 -80814l0 65806 138537 0 0 90626 84277 0 0 -90626 43293 0 0 -65806 -43293 0 0 -234359 -91780 0 -131034 234359zm60033 4618l85431 -158164 0 158164 -85431 0z"/>
  <path class="fil8" d="M1213339 934001c0,0 3838,-136348 155381,-108250 0,0 -130746,-4854 -139716,109845l-15665 -1595z"/>
  <path class="fil8" d="M1248611 910512c0,0 71350,-116252 188667,-16292 0,0 -110886,-69442 -175880,25487l-12787 -9195z"/>
  <path class="fil2" d="M1199857 938899c0,0 98798,-68726 135399,-17935 0,0 11064,33038 -135399,17935z"/>
  <path class="fil1" d="M1203288 941158c0,0 -26888,-67079 7769,-81647 0,0 20828,-2017 -7769,81647z"/>
  <path class="fil8" d="M553136 931147c0,0 -5116,-181830 -207216,-144360 0,0 174360,-6474 186323,146482l20893 -2122z"/>
  <path class="fil2" d="M566570 936878c0,0 -98798,-68726 -135404,-17936 0,0 -11063,33038 135404,17936z"/>
  <path class="fil9" d="M521256 67806c0,4489 -3637,8126 -8126,8126 -4489,0 -8130,-3637 -8130,-8126 0,-4488 3641,-8125 8130,-8125 4489,0 8126,3637 8126,8125z"/>
  <path class="fil9" d="M568748 138831c0,2983 -2415,5398 -5393,5398 -2978,0 -5393,-2415 -5393,-5398 0,-2977 2415,-5389 5393,-5389 2978,0 5393,2412 5393,5389z"/>
  <path class="fil9" d="M1093483 1197072c0,4488 -3636,8126 -8125,8126 -4485,0 -8125,-3638 -8125,-8126 0,-4489 3640,-8125 8125,-8125 4489,0 8125,3636 8125,8125z"/>
  <path class="fil9" d="M454840 1235249c0,4488 -3637,8126 -8126,8126 -4488,0 -8125,-3638 -8125,-8126 0,-4489 3637,-8125 8125,-8125 4489,0 8126,3636 8126,8125z"/>
  <path class="fil9" d="M1461799 947089c0,4485 -3641,8122 -8129,8122 -4485,0 -8122,-3637 -8122,-8122 0,-4489 3637,-8130 8122,-8130 4488,0 8129,3641 8129,8130z"/>
  <path class="fil9" d="M1566786 264060c0,4485 -3642,8126 -8130,8126 -4485,0 -8122,-3641 -8122,-8126 0,-4489 3637,-8130 8122,-8130 4488,0 8130,3641 8130,8130z"/>
  <path class="fil9" d="M1008196 8125c0,4490 -3640,8130 -8129,8130 -4484,0 -8122,-3640 -8122,-8130 0,-4489 3638,-8125 8122,-8125 4489,0 8129,3636 8129,8125z"/>
  <path class="fil9" d="M508882 479832c0,4485 -3640,8121 -8125,8121 -4489,0 -8130,-3636 -8130,-8121 0,-4493 3641,-8130 8130,-8130 4485,0 8125,3637 8125,8130z"/>
  <path class="fil9" d="M1148849 404712c0,4485 -3642,8125 -8130,8125 -4485,0 -8122,-3640 -8122,-8125 0,-4490 3637,-8130 8122,-8130 4488,0 8130,3640 8130,8130z"/>
  <path class="fil9" d="M500431 886299c0,2978 -2415,5393 -5392,5393 -2978,0 -5393,-2415 -5393,-5393 0,-2977 2415,-5397 5393,-5397 2977,0 5392,2420 5392,5397z"/>
  <path class="fil9" d="M1179346 1108771c0,2982 -2415,5397 -5393,5397 -2977,0 -5397,-2415 -5397,-5397 0,-2978 2420,-5390 5397,-5390 2978,0 5393,2412 5393,5390z"/>
  <path class="fil9" d="M1129447 1227320c0,2982 -2416,5397 -5394,5397 -2977,0 -5392,-2415 -5392,-5397 0,-2978 2415,-5388 5392,-5388 2978,0 5394,2410 5394,5388z"/>
  <path class="fil9" d="M573035 1119561c0,2977 -2415,5392 -5396,5392 -2977,0 -5389,-2415 -5389,-5392 0,-2978 2412,-5393 5389,-5393 2981,0 5396,2415 5396,5393z"/>
  <path class="fil9" d="M1509122 474335c0,2977 -2411,5392 -5393,5392 -2978,0 -5393,-2415 -5393,-5392 0,-2979 2415,-5394 5393,-5394 2982,0 5393,2415 5393,5394z"/>
 </g>
</svg>
